<svg width="65" height="64" viewBox="0 0 65 64" fill="none" xmlns="http://www.w3.org/2000/svg">
<rect x="0.5" width="64" height="64" rx="32" fill="white"/>
<path d="M17.5 30.7495V16.9995H31.25V30.7495H17.5ZM20 28.2495H28.75V19.4995H20V28.2495ZM17.5 46.9995V33.2495H31.25V46.9995H17.5ZM20 44.4995H28.75V35.7495H20V44.4995ZM33.75 30.7495V16.9995H47.5V30.7495H33.75ZM36.25 28.2495H45V19.4995H36.25V28.2495ZM44.0833 46.9995V43.5828H47.5V46.9995H44.0833ZM33.75 36.7078V33.2495H37.1667V36.7078H33.75ZM37.1667 40.1245V36.7078H40.625V40.1245H37.1667ZM33.75 43.5828V40.1245H37.1667V43.5828H33.75ZM37.1667 46.9995V43.5828H40.625V46.9995H37.1667ZM40.625 43.5828V40.1245H44.0833V43.5828H40.625ZM40.625 36.7078V33.2495H44.0833V36.7078H40.625ZM44.0833 40.1245V36.7078H47.5V40.1245H44.0833Z" fill="#808080"/>
</svg>
