<svg width="25" height="24" viewBox="0 0 25 24" fill="none" xmlns="http://www.w3.org/2000/svg">
<path d="M5 12.125C4.3 12.125 3.70833 11.8833 3.225 11.4C2.74167 10.9167 2.5 10.325 2.5 9.625C2.5 8.925 2.74167 8.33333 3.225 7.85C3.70833 7.36667 4.3 7.125 5 7.125C5.7 7.125 6.29167 7.36667 6.775 7.85C7.25833 8.33333 7.5 8.925 7.5 9.625C7.5 10.325 7.25833 10.9167 6.775 11.4C6.29167 11.8833 5.7 12.125 5 12.125ZM9.5 8.125C8.8 8.125 8.20833 7.88333 7.725 7.4C7.24167 6.91667 7 6.325 7 5.625C7 4.925 7.24167 4.33333 7.725 3.85C8.20833 3.36667 8.8 3.125 9.5 3.125C10.2 3.125 10.7917 3.36667 11.275 3.85C11.7583 4.33333 12 4.925 12 5.625C12 6.325 11.7583 6.91667 11.275 7.4C10.7917 7.88333 10.2 8.125 9.5 8.125ZM15.5 8.125C14.8 8.125 14.2083 7.88333 13.725 7.4C13.2417 6.91667 13 6.325 13 5.625C13 4.925 13.2417 4.33333 13.725 3.85C14.2083 3.36667 14.8 3.125 15.5 3.125C16.2 3.125 16.7917 3.36667 17.275 3.85C17.7583 4.33333 18 4.925 18 5.625C18 6.325 17.7583 6.91667 17.275 7.4C16.7917 7.88333 16.2 8.125 15.5 8.125ZM20 12.125C19.3 12.125 18.7083 11.8833 18.225 11.4C17.7417 10.9167 17.5 10.325 17.5 9.625C17.5 8.925 17.7417 8.33333 18.225 7.85C18.7083 7.36667 19.3 7.125 20 7.125C20.7 7.125 21.2917 7.36667 21.775 7.85C22.2583 8.33333 22.5 8.925 22.5 9.625C22.5 10.325 22.2583 10.9167 21.775 11.4C21.2917 11.8833 20.7 12.125 20 12.125ZM7.15 22.125C6.4 22.125 5.77083 21.8375 5.2625 21.2625C4.75417 20.6875 4.5 20.0083 4.5 19.225C4.5 18.3583 4.79583 17.6 5.3875 16.95C5.97917 16.3 6.56667 15.6583 7.15 15.025C7.63333 14.5083 8.05 13.9458 8.4 13.3375C8.75 12.7292 9.16667 12.1583 9.65 11.625C10.0167 11.1917 10.4417 10.8333 10.925 10.55C11.4083 10.2667 11.9333 10.125 12.5 10.125C13.0667 10.125 13.5917 10.2583 14.075 10.525C14.5583 10.7917 14.9833 11.1417 15.35 11.575C15.8167 12.1083 16.2292 12.6833 16.5875 13.3C16.9458 13.9167 17.3667 14.4917 17.85 15.025C18.4333 15.6583 19.0208 16.3 19.6125 16.95C20.2042 17.6 20.5 18.3583 20.5 19.225C20.5 20.0083 20.2458 20.6875 19.7375 21.2625C19.2292 21.8375 18.6 22.125 17.85 22.125C16.95 22.125 16.0583 22.05 15.175 21.9C14.2917 21.75 13.4 21.675 12.5 21.675C11.6 21.675 10.7083 21.75 9.825 21.9C8.94167 22.05 8.05 22.125 7.15 22.125Z" fill="#B3B3B3"/>
</svg>
