<svg width="40" height="40" viewBox="0 0 40 40" fill="none" xmlns="http://www.w3.org/2000/svg">
<path d="M11 19.2495V10.9995H19.25V19.2495H11ZM12.5 17.7495H17.75V12.4995H12.5V17.7495ZM11 28.9995V20.7495H19.25V28.9995H11ZM12.5 27.4995H17.75V22.2495H12.5V27.4995ZM20.75 19.2495V10.9995H29V19.2495H20.75ZM22.25 17.7495H27.5V12.4995H22.25V17.7495ZM26.95 28.9995V26.9495H29V28.9995H26.95ZM20.75 22.8245V20.7495H22.8V22.8245H20.75ZM22.8 24.8745V22.8245H24.875V24.8745H22.8ZM20.75 26.9495V24.8745H22.8V26.9495H20.75ZM22.8 28.9995V26.9495H24.875V28.9995H22.8ZM24.875 26.9495V24.8745H26.95V26.9495H24.875ZM24.875 22.8245V20.7495H26.95V22.8245H24.875ZM26.95 24.8745V22.8245H29V24.8745H26.95Z" fill="#B3B3B3"/>
</svg>
