<svg width="49" height="49" viewBox="0 0 49 49" fill="none" xmlns="http://www.w3.org/2000/svg">
<path d="M24.4995 24.7578C22.2995 24.7578 20.4995 24.0578 19.0995 22.6578C17.6995 21.2578 16.9995 19.4578 16.9995 17.2578C16.9995 15.0578 17.6995 13.2578 19.0995 11.8578C20.4995 10.4578 22.2995 9.75781 24.4995 9.75781C26.6995 9.75781 28.4995 10.4578 29.8995 11.8578C31.2995 13.2578 31.9995 15.0578 31.9995 17.2578C31.9995 19.4578 31.2995 21.2578 29.8995 22.6578C28.4995 24.0578 26.6995 24.7578 24.4995 24.7578ZM8.49951 40.8078V36.1078C8.49951 34.8411 8.81618 33.7578 9.44951 32.8578C10.0828 31.9578 10.8995 31.2745 11.8995 30.8078C14.1328 29.8078 16.2745 29.0578 18.3245 28.5578C20.3745 28.0578 22.4328 27.8078 24.4995 27.8078C26.5662 27.8078 28.6162 28.0661 30.6495 28.5828C32.6828 29.0995 34.8148 29.8443 37.0455 30.8173C38.0888 31.2883 38.9253 31.9711 39.555 32.8658C40.1847 33.7605 40.4995 34.8411 40.4995 36.1078V40.8078H8.49951ZM11.4995 37.8078H37.4995V36.1078C37.4995 35.5745 37.3412 35.0661 37.0245 34.5828C36.7078 34.0995 36.3162 33.7411 35.8495 33.5078C33.7162 32.4745 31.7662 31.7661 29.9995 31.3828C28.2328 30.9995 26.3995 30.8078 24.4995 30.8078C22.5995 30.8078 20.7495 30.9995 18.9495 31.3828C17.1495 31.7661 15.1995 32.4745 13.0995 33.5078C12.6328 33.7411 12.2495 34.0995 11.9495 34.5828C11.6495 35.0661 11.4995 35.5745 11.4995 36.1078V37.8078ZM24.4995 21.7578C25.7995 21.7578 26.8745 21.3328 27.7245 20.4828C28.5745 19.6328 28.9995 18.5578 28.9995 17.2578C28.9995 15.9578 28.5745 14.8828 27.7245 14.0328C26.8745 13.1828 25.7995 12.7578 24.4995 12.7578C23.1995 12.7578 22.1245 13.1828 21.2745 14.0328C20.4245 14.8828 19.9995 15.9578 19.9995 17.2578C19.9995 18.5578 20.4245 19.6328 21.2745 20.4828C22.1245 21.3328 23.1995 21.7578 24.4995 21.7578Z" fill="white"/>
</svg>
