<svg width="24" height="24" viewBox="0 0 24 24" fill="none" xmlns="http://www.w3.org/2000/svg">
<path d="M12.0002 10.909C10.7249 10.909 9.63317 10.455 8.72508 9.54687C7.81677 8.63856 7.36262 7.54673 7.36262 6.27139C7.36262 4.99605 7.81677 3.90434 8.72508 2.99625C9.63317 2.08794 10.7249 1.63379 12.0002 1.63379C13.2756 1.63379 14.3673 2.08794 15.2754 2.99625C16.1837 3.90434 16.6378 4.99605 16.6378 6.27139C16.6378 7.54673 16.1837 8.63856 15.2754 9.54687C14.3673 10.455 13.2756 10.909 12.0002 10.909ZM2.0625 20.9998V18.0539C2.0625 17.4051 2.23873 16.8042 2.59119 16.2512C2.94365 15.6982 3.41469 15.2731 4.00433 14.9758C5.3139 14.3339 6.63507 13.8523 7.96783 13.5312C9.30058 13.2101 10.6447 13.0496 12.0002 13.0496C13.3557 13.0496 14.6999 13.2101 16.0326 13.5312C17.3654 13.8523 18.6865 14.3339 19.9961 14.9758C20.5858 15.2731 21.0568 15.6982 21.4093 16.2512C21.7617 16.8042 21.9379 17.4051 21.9379 18.0539V20.9998H2.0625ZM4.05004 19.0122H19.9504V18.0539C19.9504 17.7856 19.8727 17.5371 19.7172 17.3086C19.5617 17.0802 19.3507 16.8938 19.0842 16.7494C17.9424 16.1871 16.7784 15.7611 15.592 15.4714C14.4055 15.1819 13.2082 15.0371 12.0002 15.0371C10.7922 15.0371 9.59496 15.1819 8.4084 15.4714C7.22206 15.7611 6.05802 16.1871 4.91628 16.7494C4.64973 16.8938 4.43872 17.0802 4.28325 17.3086C4.12778 17.5371 4.05004 17.7856 4.05004 18.0539V19.0122ZM12.0002 8.92145C12.729 8.92145 13.3529 8.66197 13.8718 8.143C14.3908 7.62403 14.6503 7.00016 14.6503 6.27139C14.6503 5.54263 14.3908 4.91876 13.8718 4.39979C13.3529 3.88082 12.729 3.62133 12.0002 3.62133C11.2715 3.62133 10.6476 3.88082 10.1286 4.39979C9.60965 4.91876 9.35016 5.54263 9.35016 6.27139C9.35016 7.00016 9.60965 7.62403 10.1286 8.143C10.6476 8.66197 11.2715 8.92145 12.0002 8.92145Z" fill="#B3B3B3"/>
</svg>
