<svg width="20" height="20" viewBox="0 0 20 20" fill="none" xmlns="http://www.w3.org/2000/svg">
<path d="M10.0002 9.909C8.72488 9.909 7.63317 9.45495 6.72508 8.54687C5.81677 7.63856 5.36262 6.54673 5.36262 5.27139C5.36262 3.99605 5.81677 2.90434 6.72508 1.99625C7.63317 1.08794 8.72488 0.633789 10.0002 0.633789C11.2756 0.633789 12.3673 1.08794 13.2754 1.99625C14.1837 2.90434 14.6378 3.99605 14.6378 5.27139C14.6378 6.54673 14.1837 7.63856 13.2754 8.54687C12.3673 9.45495 11.2756 9.909 10.0002 9.909ZM0.0625 19.9998V17.0539C0.0625 16.4051 0.238729 15.8042 0.591187 15.2512C0.943645 14.6982 1.41469 14.2731 2.00433 13.9758C3.3139 13.3339 4.63507 12.8523 5.96783 12.5312C7.30058 12.2101 8.64472 12.0496 10.0002 12.0496C11.3557 12.0496 12.6999 12.2101 14.0326 12.5312C15.3654 12.8523 16.6865 13.3339 17.9961 13.9758C18.5858 14.2731 19.0568 14.6982 19.4093 15.2512C19.7617 15.8042 19.9379 16.4051 19.9379 17.0539V19.9998H0.0625ZM2.05004 18.0122H17.9504V17.0539C17.9504 16.7856 17.8727 16.5371 17.7172 16.3086C17.5617 16.0802 17.3507 15.8938 17.0842 15.7494C15.9424 15.1871 14.7784 14.7611 13.592 14.4714C12.4055 14.1819 11.2082 14.0371 10.0002 14.0371C8.79224 14.0371 7.59496 14.1819 6.4084 14.4714C5.22206 14.7611 4.05802 15.1871 2.91628 15.7494C2.64973 15.8938 2.43872 16.0802 2.28325 16.3086C2.12778 16.5371 2.05004 16.7856 2.05004 17.0539V18.0122ZM10.0002 7.92145C10.729 7.92145 11.3529 7.66197 11.8718 7.143C12.3908 6.62403 12.6503 6.00016 12.6503 5.27139C12.6503 4.54263 12.3908 3.91876 11.8718 3.39979C11.3529 2.88082 10.729 2.62133 10.0002 2.62133C9.27146 2.62133 8.64759 2.88082 8.12862 3.39979C7.60965 3.91876 7.35016 4.54263 7.35016 5.27139C7.35016 6.00016 7.60965 6.62403 8.12862 7.143C8.64759 7.66197 9.27146 7.92145 10.0002 7.92145Z" fill="#B3B3B3"/>
</svg>
