<svg width="40" height="40" viewBox="0 0 40 40" fill="none" xmlns="http://www.w3.org/2000/svg">
<g clip-path="url(#clip0_43_2345)">
<path d="M20.0002 18.909C18.7249 18.909 17.6332 18.455 16.7251 17.5469C15.8168 16.6386 15.3626 15.5467 15.3626 14.2714C15.3626 12.9961 15.8168 11.9043 16.7251 10.9963C17.6332 10.0879 18.7249 9.63379 20.0002 9.63379C21.2756 9.63379 22.3673 10.0879 23.2754 10.9963C24.1837 11.9043 24.6378 12.9961 24.6378 14.2714C24.6378 15.5467 24.1837 16.6386 23.2754 17.5469C22.3673 18.455 21.2756 18.909 20.0002 18.909ZM10.0625 28.9998V26.0539C10.0625 25.4051 10.2387 24.8042 10.5912 24.2512C10.9436 23.6982 11.4147 23.2731 12.0043 22.9758C13.3139 22.3339 14.6351 21.8523 15.9678 21.5312C17.3006 21.2101 18.6447 21.0496 20.0002 21.0496C21.3557 21.0496 22.6999 21.2101 24.0326 21.5312C25.3654 21.8523 26.6865 22.3339 27.9961 22.9758C28.5858 23.2731 29.0568 23.6982 29.4093 24.2512C29.7617 24.8042 29.9379 25.4051 29.9379 26.0539V28.9998H10.0625ZM12.05 27.0122H27.9504V26.0539C27.9504 25.7856 27.8727 25.5371 27.7172 25.3086C27.5617 25.0802 27.3507 24.8938 27.0842 24.7494C25.9424 24.1871 24.7784 23.7611 23.592 23.4714C22.4055 23.1819 21.2082 23.0371 20.0002 23.0371C18.7922 23.0371 17.595 23.1819 16.4084 23.4714C15.2221 23.7611 14.058 24.1871 12.9163 24.7494C12.6497 24.8938 12.4387 25.0802 12.2832 25.3086C12.1278 25.5371 12.05 25.7856 12.05 26.0539V27.0122ZM20.0002 16.9215C20.729 16.9215 21.3529 16.662 21.8718 16.143C22.3908 15.624 22.6503 15.0002 22.6503 14.2714C22.6503 13.5426 22.3908 12.9188 21.8718 12.3998C21.3529 11.8808 20.729 11.6213 20.0002 11.6213C19.2715 11.6213 18.6476 11.8808 18.1286 12.3998C17.6096 12.9188 17.3502 13.5426 17.3502 14.2714C17.3502 15.0002 17.6096 15.624 18.1286 16.143C18.6476 16.662 19.2715 16.9215 20.0002 16.9215Z" fill="#B3B3B3"/>
<g clip-path="url(#clip1_43_2345)">
<path d="M14.0003 10.9998C15.8337 10.9998 17.3337 12.4998 17.3337 14.3332C17.3337 16.1665 15.8337 17.6665 14.0003 17.6665C12.167 17.6665 10.667 16.1665 10.667 14.3332C10.667 12.4998 12.167 10.9998 14.0003 10.9998ZM14.0003 27.6665C18.5003 27.6665 23.667 29.8165 24.0003 30.9998H4.00033C4.38366 29.7998 9.51699 27.6665 14.0003 27.6665ZM14.0003 7.6665C10.317 7.6665 7.33366 10.6498 7.33366 14.3332C7.33366 18.0165 10.317 20.9998 14.0003 20.9998C17.6837 20.9998 20.667 18.0165 20.667 14.3332C20.667 10.6498 17.6837 7.6665 14.0003 7.6665ZM14.0003 24.3332C9.55033 24.3332 0.666992 26.5665 0.666992 30.9998V34.3332H27.3337V30.9998C27.3337 26.5665 18.4503 24.3332 14.0003 24.3332Z" fill="#E8EAED"/>
</g>
</g>
<defs>
<clipPath id="clip0_43_2345">
<rect width="40" height="40" fill="white"/>
</clipPath>
<clipPath id="clip1_43_2345">
<rect width="40" height="40" fill="white" transform="translate(-6 1)"/>
</clipPath>
</defs>
</svg>
