<svg width="41" height="40" viewBox="0 0 41 40" fill="none" xmlns="http://www.w3.org/2000/svg">
<path d="M13 20.125C12.3 20.125 11.7083 19.8833 11.225 19.4C10.7417 18.9167 10.5 18.325 10.5 17.625C10.5 16.925 10.7417 16.3333 11.225 15.85C11.7083 15.3667 12.3 15.125 13 15.125C13.7 15.125 14.2917 15.3667 14.775 15.85C15.2583 16.3333 15.5 16.925 15.5 17.625C15.5 18.325 15.2583 18.9167 14.775 19.4C14.2917 19.8833 13.7 20.125 13 20.125ZM17.5 16.125C16.8 16.125 16.2083 15.8833 15.725 15.4C15.2417 14.9167 15 14.325 15 13.625C15 12.925 15.2417 12.3333 15.725 11.85C16.2083 11.3667 16.8 11.125 17.5 11.125C18.2 11.125 18.7917 11.3667 19.275 11.85C19.7583 12.3333 20 12.925 20 13.625C20 14.325 19.7583 14.9167 19.275 15.4C18.7917 15.8833 18.2 16.125 17.5 16.125ZM23.5 16.125C22.8 16.125 22.2083 15.8833 21.725 15.4C21.2417 14.9167 21 14.325 21 13.625C21 12.925 21.2417 12.3333 21.725 11.85C22.2083 11.3667 22.8 11.125 23.5 11.125C24.2 11.125 24.7917 11.3667 25.275 11.85C25.7583 12.3333 26 12.925 26 13.625C26 14.325 25.7583 14.9167 25.275 15.4C24.7917 15.8833 24.2 16.125 23.5 16.125ZM28 20.125C27.3 20.125 26.7083 19.8833 26.225 19.4C25.7417 18.9167 25.5 18.325 25.5 17.625C25.5 16.925 25.7417 16.3333 26.225 15.85C26.7083 15.3667 27.3 15.125 28 15.125C28.7 15.125 29.2917 15.3667 29.775 15.85C30.2583 16.3333 30.5 16.925 30.5 17.625C30.5 18.325 30.2583 18.9167 29.775 19.4C29.2917 19.8833 28.7 20.125 28 20.125ZM15.15 30.125C14.4 30.125 13.7708 29.8375 13.2625 29.2625C12.7542 28.6875 12.5 28.0083 12.5 27.225C12.5 26.3583 12.7958 25.6 13.3875 24.95C13.9792 24.3 14.5667 23.6583 15.15 23.025C15.6333 22.5083 16.05 21.9458 16.4 21.3375C16.75 20.7292 17.1667 20.1583 17.65 19.625C18.0167 19.1917 18.4417 18.8333 18.925 18.55C19.4083 18.2667 19.9333 18.125 20.5 18.125C21.0667 18.125 21.5917 18.2583 22.075 18.525C22.5583 18.7917 22.9833 19.1417 23.35 19.575C23.8167 20.1083 24.2292 20.6833 24.5875 21.3C24.9458 21.9167 25.3667 22.4917 25.85 23.025C26.4333 23.6583 27.0208 24.3 27.6125 24.95C28.2042 25.6 28.5 26.3583 28.5 27.225C28.5 28.0083 28.2458 28.6875 27.7375 29.2625C27.2292 29.8375 26.6 30.125 25.85 30.125C24.95 30.125 24.0583 30.05 23.175 29.9C22.2917 29.75 21.4 29.675 20.5 29.675C19.6 29.675 18.7083 29.75 17.825 29.9C16.9417 30.05 16.05 30.125 15.15 30.125Z" fill="#B3B3B3"/>
</svg>
